<svg id="svgQrWrapper" viewBox="0 0 300 300" xmlns="http://www.w3.org/2000/svg" xmlns:xlink="http://www.w3.org/1999/xlink" width="300" height="300" style="width: 100%; height: 100%; background-color: rgb(255, 255, 255);"><svg><g transform="translate(9, 9)scale(0.95)" fill="none"><svg width="300" height="300"><style>.dot-color{ fill: #000000; }.corners-square-color-0-0{ fill: #000000; }.corners-dot-color-0-0{ fill: #000000; }.corners-square-color-1-0{ fill: #000000; }.corners-dot-color-1-0{ fill: #000000; }.corners-square-color-0-1{ fill: #000000; }.corners-dot-color-0-1{ fill: #000000; }</style><defs/><rect x="0" y="0" height="300" width="300" clip-path="url('#clip-path-background-color')"/><g class="dot-color"><rect x="1" y="73" width="9" height="9" transform="rotate(0,5.5,77.5)"/><rect x="1" y="109" width="9" height="9" transform="rotate(0,5.5,113.5)"/><rect x="1" y="118" width="9" height="9" transform="rotate(0,5.5,122.5)"/><rect x="1" y="127" width="9" height="9" transform="rotate(0,5.5,131.5)"/><rect x="1" y="136" width="9" height="9" transform="rotate(0,5.5,140.5)"/><rect x="1" y="145" width="9" height="9" transform="rotate(0,5.5,149.5)"/><rect x="1" y="163" width="9" height="9" transform="rotate(0,5.5,167.5)"/><rect x="1" y="181" width="9" height="9" transform="rotate(0,5.5,185.5)"/><rect x="1" y="199" width="9" height="9" transform="rotate(0,5.5,203.5)"/><rect x="1" y="208" width="9" height="9" transform="rotate(0,5.5,212.5)"/><rect x="1" y="217" width="9" height="9" transform="rotate(0,5.5,221.5)"/><rect x="10" y="91" width="9" height="9" transform="rotate(0,14.5,95.5)"/><rect x="10" y="118" width="9" height="9" transform="rotate(0,14.5,122.5)"/><rect x="10" y="127" width="9" height="9" transform="rotate(0,14.5,131.5)"/><rect x="10" y="136" width="9" height="9" transform="rotate(0,14.5,140.5)"/><rect x="10" y="154" width="9" height="9" transform="rotate(0,14.5,158.5)"/><rect x="10" y="163" width="9" height="9" transform="rotate(0,14.5,167.5)"/><rect x="10" y="208" width="9" height="9" transform="rotate(0,14.5,212.5)"/><rect x="19" y="91" width="9" height="9" transform="rotate(0,23.5,95.5)"/><rect x="19" y="100" width="9" height="9" transform="rotate(0,23.5,104.5)"/><rect x="19" y="118" width="9" height="9" transform="rotate(0,23.5,122.5)"/><rect x="19" y="127" width="9" height="9" transform="rotate(0,23.5,131.5)"/><rect x="19" y="145" width="9" height="9" transform="rotate(0,23.5,149.5)"/><rect x="19" y="199" width="9" height="9" transform="rotate(0,23.5,203.5)"/><rect x="19" y="208" width="9" height="9" transform="rotate(0,23.5,212.5)"/><rect x="19" y="217" width="9" height="9" transform="rotate(0,23.5,221.5)"/><rect x="28" y="73" width="9" height="9" transform="rotate(0,32.5,77.5)"/><rect x="28" y="82" width="9" height="9" transform="rotate(0,32.5,86.5)"/><rect x="28" y="91" width="9" height="9" transform="rotate(0,32.5,95.5)"/><rect x="28" y="100" width="9" height="9" transform="rotate(0,32.5,104.5)"/><rect x="28" y="127" width="9" height="9" transform="rotate(0,32.5,131.5)"/><rect x="28" y="145" width="9" height="9" transform="rotate(0,32.5,149.5)"/><rect x="28" y="154" width="9" height="9" transform="rotate(0,32.5,158.5)"/><rect x="28" y="181" width="9" height="9" transform="rotate(0,32.5,185.5)"/><rect x="28" y="217" width="9" height="9" transform="rotate(0,32.5,221.5)"/><rect x="37" y="82" width="9" height="9" transform="rotate(0,41.5,86.5)"/><rect x="37" y="109" width="9" height="9" transform="rotate(0,41.5,113.5)"/><rect x="37" y="118" width="9" height="9" transform="rotate(0,41.5,122.5)"/><rect x="37" y="154" width="9" height="9" transform="rotate(0,41.5,158.5)"/><rect x="37" y="172" width="9" height="9" transform="rotate(0,41.5,176.5)"/><rect x="37" y="181" width="9" height="9" transform="rotate(0,41.5,185.5)"/><rect x="37" y="199" width="9" height="9" transform="rotate(0,41.5,203.5)"/><rect x="37" y="217" width="9" height="9" transform="rotate(0,41.5,221.5)"/><rect x="46" y="109" width="9" height="9" transform="rotate(0,50.5,113.5)"/><rect x="46" y="127" width="9" height="9" transform="rotate(0,50.5,131.5)"/><rect x="46" y="136" width="9" height="9" transform="rotate(0,50.5,140.5)"/><rect x="46" y="172" width="9" height="9" transform="rotate(0,50.5,176.5)"/><rect x="46" y="199" width="9" height="9" transform="rotate(0,50.5,203.5)"/><rect x="46" y="208" width="9" height="9" transform="rotate(0,50.5,212.5)"/><rect x="46" y="217" width="9" height="9" transform="rotate(0,50.5,221.5)"/><rect x="55" y="73" width="9" height="9" transform="rotate(0,59.5,77.5)"/><rect x="55" y="91" width="9" height="9" transform="rotate(0,59.5,95.5)"/><rect x="55" y="109" width="9" height="9" transform="rotate(0,59.5,113.5)"/><rect x="55" y="127" width="9" height="9" transform="rotate(0,59.5,131.5)"/><rect x="55" y="145" width="9" height="9" transform="rotate(0,59.5,149.5)"/><rect x="55" y="163" width="9" height="9" transform="rotate(0,59.5,167.5)"/><rect x="55" y="181" width="9" height="9" transform="rotate(0,59.5,185.5)"/><rect x="55" y="199" width="9" height="9" transform="rotate(0,59.5,203.5)"/><rect x="55" y="217" width="9" height="9" transform="rotate(0,59.5,221.5)"/><rect x="64" y="109" width="9" height="9" transform="rotate(0,68.5,113.5)"/><rect x="64" y="118" width="9" height="9" transform="rotate(0,68.5,122.5)"/><rect x="64" y="136" width="9" height="9" transform="rotate(0,68.5,140.5)"/><rect x="64" y="154" width="9" height="9" transform="rotate(0,68.5,158.5)"/><rect x="64" y="190" width="9" height="9" transform="rotate(0,68.5,194.5)"/><rect x="64" y="208" width="9" height="9" transform="rotate(0,68.5,212.5)"/><rect x="73" y="19" width="9" height="9" transform="rotate(0,77.5,23.5)"/><rect x="73" y="37" width="9" height="9" transform="rotate(0,77.5,41.5)"/><rect x="73" y="46" width="9" height="9" transform="rotate(0,77.5,50.5)"/><rect x="73" y="55" width="9" height="9" transform="rotate(0,77.5,59.5)"/><rect x="73" y="73" width="9" height="9" transform="rotate(0,77.5,77.5)"/><rect x="73" y="100" width="9" height="9" transform="rotate(0,77.5,104.5)"/><rect x="73" y="109" width="9" height="9" transform="rotate(0,77.5,113.5)"/><rect x="73" y="136" width="9" height="9" transform="rotate(0,77.5,140.5)"/><rect x="73" y="154" width="9" height="9" transform="rotate(0,77.5,158.5)"/><rect x="73" y="163" width="9" height="9" transform="rotate(0,77.5,167.5)"/><rect x="73" y="172" width="9" height="9" transform="rotate(0,77.5,176.5)"/><rect x="73" y="190" width="9" height="9" transform="rotate(0,77.5,194.5)"/><rect x="73" y="217" width="9" height="9" transform="rotate(0,77.5,221.5)"/><rect x="73" y="226" width="9" height="9" transform="rotate(0,77.5,230.5)"/><rect x="73" y="262" width="9" height="9" transform="rotate(0,77.5,266.5)"/><rect x="73" y="289" width="9" height="9" transform="rotate(0,77.5,293.5)"/><rect x="82" y="10" width="9" height="9" transform="rotate(0,86.5,14.5)"/><rect x="82" y="19" width="9" height="9" transform="rotate(0,86.5,23.5)"/><rect x="82" y="64" width="9" height="9" transform="rotate(0,86.5,68.5)"/><rect x="82" y="100" width="9" height="9" transform="rotate(0,86.5,104.5)"/><rect x="82" y="118" width="9" height="9" transform="rotate(0,86.5,122.5)"/><rect x="82" y="127" width="9" height="9" transform="rotate(0,86.5,131.5)"/><rect x="82" y="145" width="9" height="9" transform="rotate(0,86.5,149.5)"/><rect x="82" y="163" width="9" height="9" transform="rotate(0,86.5,167.5)"/><rect x="82" y="199" width="9" height="9" transform="rotate(0,86.5,203.5)"/><rect x="82" y="217" width="9" height="9" transform="rotate(0,86.5,221.5)"/><rect x="82" y="235" width="9" height="9" transform="rotate(0,86.5,239.5)"/><rect x="82" y="271" width="9" height="9" transform="rotate(0,86.5,275.5)"/><rect x="82" y="280" width="9" height="9" transform="rotate(0,86.5,284.5)"/><rect x="82" y="289" width="9" height="9" transform="rotate(0,86.5,293.5)"/><rect x="91" y="10" width="9" height="9" transform="rotate(0,95.5,14.5)"/><rect x="91" y="19" width="9" height="9" transform="rotate(0,95.5,23.5)"/><rect x="91" y="28" width="9" height="9" transform="rotate(0,95.5,32.5)"/><rect x="91" y="37" width="9" height="9" transform="rotate(0,95.5,41.5)"/><rect x="91" y="55" width="9" height="9" transform="rotate(0,95.5,59.5)"/><rect x="91" y="64" width="9" height="9" transform="rotate(0,95.5,68.5)"/><rect x="91" y="73" width="9" height="9" transform="rotate(0,95.5,77.5)"/><rect x="91" y="109" width="9" height="9" transform="rotate(0,95.5,113.5)"/><rect x="91" y="127" width="9" height="9" transform="rotate(0,95.5,131.5)"/><rect x="91" y="154" width="9" height="9" transform="rotate(0,95.5,158.5)"/><rect x="91" y="172" width="9" height="9" transform="rotate(0,95.5,176.5)"/><rect x="91" y="190" width="9" height="9" transform="rotate(0,95.5,194.5)"/><rect x="91" y="217" width="9" height="9" transform="rotate(0,95.5,221.5)"/><rect x="91" y="226" width="9" height="9" transform="rotate(0,95.5,230.5)"/><rect x="91" y="235" width="9" height="9" transform="rotate(0,95.5,239.5)"/><rect x="91" y="253" width="9" height="9" transform="rotate(0,95.5,257.5)"/><rect x="91" y="262" width="9" height="9" transform="rotate(0,95.5,266.5)"/><rect x="91" y="289" width="9" height="9" transform="rotate(0,95.5,293.5)"/><rect x="100" y="37" width="9" height="9" transform="rotate(0,104.5,41.5)"/><rect x="100" y="100" width="9" height="9" transform="rotate(0,104.5,104.5)"/><rect x="100" y="109" width="9" height="9" transform="rotate(0,104.5,113.5)"/><rect x="100" y="127" width="9" height="9" transform="rotate(0,104.5,131.5)"/><rect x="100" y="136" width="9" height="9" transform="rotate(0,104.5,140.5)"/><rect x="100" y="208" width="9" height="9" transform="rotate(0,104.5,212.5)"/><rect x="109" y="10" width="9" height="9" transform="rotate(0,113.5,14.5)"/><rect x="109" y="19" width="9" height="9" transform="rotate(0,113.5,23.5)"/><rect x="109" y="37" width="9" height="9" transform="rotate(0,113.5,41.5)"/><rect x="109" y="55" width="9" height="9" transform="rotate(0,113.5,59.5)"/><rect x="109" y="73" width="9" height="9" transform="rotate(0,113.5,77.5)"/><rect x="109" y="82" width="9" height="9" transform="rotate(0,113.5,86.5)"/><rect x="109" y="100" width="9" height="9" transform="rotate(0,113.5,104.5)"/><rect x="109" y="208" width="9" height="9" transform="rotate(0,113.5,212.5)"/><rect x="109" y="235" width="9" height="9" transform="rotate(0,113.5,239.5)"/><rect x="109" y="253" width="9" height="9" transform="rotate(0,113.5,257.5)"/><rect x="109" y="289" width="9" height="9" transform="rotate(0,113.5,293.5)"/><rect x="118" y="1" width="9" height="9" transform="rotate(0,122.5,5.5)"/><rect x="118" y="46" width="9" height="9" transform="rotate(0,122.5,50.5)"/><rect x="118" y="100" width="9" height="9" transform="rotate(0,122.5,104.5)"/><rect x="118" y="217" width="9" height="9" transform="rotate(0,122.5,221.5)"/><rect x="118" y="226" width="9" height="9" transform="rotate(0,122.5,230.5)"/><rect x="118" y="235" width="9" height="9" transform="rotate(0,122.5,239.5)"/><rect x="118" y="253" width="9" height="9" transform="rotate(0,122.5,257.5)"/><rect x="118" y="262" width="9" height="9" transform="rotate(0,122.5,266.5)"/><rect x="118" y="271" width="9" height="9" transform="rotate(0,122.5,275.5)"/><rect x="118" y="280" width="9" height="9" transform="rotate(0,122.5,284.5)"/><rect x="118" y="289" width="9" height="9" transform="rotate(0,122.5,293.5)"/><rect x="127" y="1" width="9" height="9" transform="rotate(0,131.5,5.5)"/><rect x="127" y="10" width="9" height="9" transform="rotate(0,131.5,14.5)"/><rect x="127" y="19" width="9" height="9" transform="rotate(0,131.5,23.5)"/><rect x="127" y="28" width="9" height="9" transform="rotate(0,131.5,32.5)"/><rect x="127" y="46" width="9" height="9" transform="rotate(0,131.5,50.5)"/><rect x="127" y="55" width="9" height="9" transform="rotate(0,131.5,59.5)"/><rect x="127" y="64" width="9" height="9" transform="rotate(0,131.5,68.5)"/><rect x="127" y="190" width="9" height="9" transform="rotate(0,131.5,194.5)"/><rect x="127" y="271" width="9" height="9" transform="rotate(0,131.5,275.5)"/><rect x="127" y="280" width="9" height="9" transform="rotate(0,131.5,284.5)"/><rect x="127" y="289" width="9" height="9" transform="rotate(0,131.5,293.5)"/><rect x="136" y="1" width="9" height="9" transform="rotate(0,140.5,5.5)"/><rect x="136" y="46" width="9" height="9" transform="rotate(0,140.5,50.5)"/><rect x="136" y="73" width="9" height="9" transform="rotate(0,140.5,77.5)"/><rect x="136" y="91" width="9" height="9" transform="rotate(0,140.5,95.5)"/><rect x="136" y="100" width="9" height="9" transform="rotate(0,140.5,104.5)"/><rect x="136" y="190" width="9" height="9" transform="rotate(0,140.5,194.5)"/><rect x="136" y="199" width="9" height="9" transform="rotate(0,140.5,203.5)"/><rect x="136" y="208" width="9" height="9" transform="rotate(0,140.5,212.5)"/><rect x="136" y="235" width="9" height="9" transform="rotate(0,140.5,239.5)"/><rect x="136" y="253" width="9" height="9" transform="rotate(0,140.5,257.5)"/><rect x="136" y="262" width="9" height="9" transform="rotate(0,140.5,266.5)"/><rect x="136" y="280" width="9" height="9" transform="rotate(0,140.5,284.5)"/><rect x="145" y="1" width="9" height="9" transform="rotate(0,149.5,5.5)"/><rect x="145" y="10" width="9" height="9" transform="rotate(0,149.5,14.5)"/><rect x="145" y="19" width="9" height="9" transform="rotate(0,149.5,23.5)"/><rect x="145" y="28" width="9" height="9" transform="rotate(0,149.5,32.5)"/><rect x="145" y="37" width="9" height="9" transform="rotate(0,149.5,41.5)"/><rect x="145" y="55" width="9" height="9" transform="rotate(0,149.5,59.5)"/><rect x="145" y="73" width="9" height="9" transform="rotate(0,149.5,77.5)"/><rect x="145" y="91" width="9" height="9" transform="rotate(0,149.5,95.5)"/><rect x="145" y="100" width="9" height="9" transform="rotate(0,149.5,104.5)"/><rect x="145" y="190" width="9" height="9" transform="rotate(0,149.5,194.5)"/><rect x="145" y="199" width="9" height="9" transform="rotate(0,149.5,203.5)"/><rect x="145" y="226" width="9" height="9" transform="rotate(0,149.5,230.5)"/><rect x="145" y="235" width="9" height="9" transform="rotate(0,149.5,239.5)"/><rect x="145" y="262" width="9" height="9" transform="rotate(0,149.5,266.5)"/><rect x="145" y="280" width="9" height="9" transform="rotate(0,149.5,284.5)"/><rect x="154" y="1" width="9" height="9" transform="rotate(0,158.5,5.5)"/><rect x="154" y="28" width="9" height="9" transform="rotate(0,158.5,32.5)"/><rect x="154" y="82" width="9" height="9" transform="rotate(0,158.5,86.5)"/><rect x="154" y="226" width="9" height="9" transform="rotate(0,158.5,230.5)"/><rect x="154" y="235" width="9" height="9" transform="rotate(0,158.5,239.5)"/><rect x="154" y="262" width="9" height="9" transform="rotate(0,158.5,266.5)"/><rect x="154" y="271" width="9" height="9" transform="rotate(0,158.5,275.5)"/><rect x="154" y="289" width="9" height="9" transform="rotate(0,158.5,293.5)"/><rect x="163" y="1" width="9" height="9" transform="rotate(0,167.5,5.5)"/><rect x="163" y="37" width="9" height="9" transform="rotate(0,167.5,41.5)"/><rect x="163" y="46" width="9" height="9" transform="rotate(0,167.5,50.5)"/><rect x="163" y="55" width="9" height="9" transform="rotate(0,167.5,59.5)"/><rect x="163" y="64" width="9" height="9" transform="rotate(0,167.5,68.5)"/><rect x="163" y="73" width="9" height="9" transform="rotate(0,167.5,77.5)"/><rect x="163" y="91" width="9" height="9" transform="rotate(0,167.5,95.5)"/><rect x="163" y="190" width="9" height="9" transform="rotate(0,167.5,194.5)"/><rect x="163" y="235" width="9" height="9" transform="rotate(0,167.5,239.5)"/><rect x="163" y="244" width="9" height="9" transform="rotate(0,167.5,248.5)"/><rect x="163" y="271" width="9" height="9" transform="rotate(0,167.5,275.5)"/><rect x="163" y="280" width="9" height="9" transform="rotate(0,167.5,284.5)"/><rect x="163" y="289" width="9" height="9" transform="rotate(0,167.5,293.5)"/><rect x="172" y="19" width="9" height="9" transform="rotate(0,176.5,23.5)"/><rect x="172" y="37" width="9" height="9" transform="rotate(0,176.5,41.5)"/><rect x="172" y="46" width="9" height="9" transform="rotate(0,176.5,50.5)"/><rect x="172" y="64" width="9" height="9" transform="rotate(0,176.5,68.5)"/><rect x="172" y="73" width="9" height="9" transform="rotate(0,176.5,77.5)"/><rect x="172" y="82" width="9" height="9" transform="rotate(0,176.5,86.5)"/><rect x="172" y="190" width="9" height="9" transform="rotate(0,176.5,194.5)"/><rect x="172" y="253" width="9" height="9" transform="rotate(0,176.5,257.5)"/><rect x="172" y="280" width="9" height="9" transform="rotate(0,176.5,284.5)"/><rect x="181" y="55" width="9" height="9" transform="rotate(0,185.5,59.5)"/><rect x="181" y="64" width="9" height="9" transform="rotate(0,185.5,68.5)"/><rect x="181" y="73" width="9" height="9" transform="rotate(0,185.5,77.5)"/><rect x="181" y="100" width="9" height="9" transform="rotate(0,185.5,104.5)"/><rect x="181" y="190" width="9" height="9" transform="rotate(0,185.5,194.5)"/><rect x="181" y="217" width="9" height="9" transform="rotate(0,185.5,221.5)"/><rect x="181" y="235" width="9" height="9" transform="rotate(0,185.5,239.5)"/><rect x="181" y="262" width="9" height="9" transform="rotate(0,185.5,266.5)"/><rect x="181" y="289" width="9" height="9" transform="rotate(0,185.5,293.5)"/><rect x="190" y="37" width="9" height="9" transform="rotate(0,194.5,41.5)"/><rect x="190" y="46" width="9" height="9" transform="rotate(0,194.5,50.5)"/><rect x="190" y="91" width="9" height="9" transform="rotate(0,194.5,95.5)"/><rect x="190" y="100" width="9" height="9" transform="rotate(0,194.5,104.5)"/><rect x="190" y="109" width="9" height="9" transform="rotate(0,194.5,113.5)"/><rect x="190" y="127" width="9" height="9" transform="rotate(0,194.5,131.5)"/><rect x="190" y="181" width="9" height="9" transform="rotate(0,194.5,185.5)"/><rect x="190" y="190" width="9" height="9" transform="rotate(0,194.5,194.5)"/><rect x="190" y="208" width="9" height="9" transform="rotate(0,194.5,212.5)"/><rect x="190" y="217" width="9" height="9" transform="rotate(0,194.5,221.5)"/><rect x="190" y="271" width="9" height="9" transform="rotate(0,194.5,275.5)"/><rect x="190" y="280" width="9" height="9" transform="rotate(0,194.5,284.5)"/><rect x="190" y="289" width="9" height="9" transform="rotate(0,194.5,293.5)"/><rect x="199" y="1" width="9" height="9" transform="rotate(0,203.5,5.5)"/><rect x="199" y="19" width="9" height="9" transform="rotate(0,203.5,23.5)"/><rect x="199" y="28" width="9" height="9" transform="rotate(0,203.5,32.5)"/><rect x="199" y="37" width="9" height="9" transform="rotate(0,203.5,41.5)"/><rect x="199" y="55" width="9" height="9" transform="rotate(0,203.5,59.5)"/><rect x="199" y="64" width="9" height="9" transform="rotate(0,203.5,68.5)"/><rect x="199" y="82" width="9" height="9" transform="rotate(0,203.5,86.5)"/><rect x="199" y="91" width="9" height="9" transform="rotate(0,203.5,95.5)"/><rect x="199" y="109" width="9" height="9" transform="rotate(0,203.5,113.5)"/><rect x="199" y="145" width="9" height="9" transform="rotate(0,203.5,149.5)"/><rect x="199" y="154" width="9" height="9" transform="rotate(0,203.5,158.5)"/><rect x="199" y="172" width="9" height="9" transform="rotate(0,203.5,176.5)"/><rect x="199" y="190" width="9" height="9" transform="rotate(0,203.5,194.5)"/><rect x="199" y="199" width="9" height="9" transform="rotate(0,203.5,203.5)"/><rect x="199" y="208" width="9" height="9" transform="rotate(0,203.5,212.5)"/><rect x="199" y="217" width="9" height="9" transform="rotate(0,203.5,221.5)"/><rect x="199" y="235" width="9" height="9" transform="rotate(0,203.5,239.5)"/><rect x="199" y="244" width="9" height="9" transform="rotate(0,203.5,248.5)"/><rect x="199" y="253" width="9" height="9" transform="rotate(0,203.5,257.5)"/><rect x="199" y="280" width="9" height="9" transform="rotate(0,203.5,284.5)"/><rect x="199" y="289" width="9" height="9" transform="rotate(0,203.5,293.5)"/><rect x="208" y="10" width="9" height="9" transform="rotate(0,212.5,14.5)"/><rect x="208" y="19" width="9" height="9" transform="rotate(0,212.5,23.5)"/><rect x="208" y="28" width="9" height="9" transform="rotate(0,212.5,32.5)"/><rect x="208" y="46" width="9" height="9" transform="rotate(0,212.5,50.5)"/><rect x="208" y="73" width="9" height="9" transform="rotate(0,212.5,77.5)"/><rect x="208" y="100" width="9" height="9" transform="rotate(0,212.5,104.5)"/><rect x="208" y="109" width="9" height="9" transform="rotate(0,212.5,113.5)"/><rect x="208" y="190" width="9" height="9" transform="rotate(0,212.5,194.5)"/><rect x="208" y="199" width="9" height="9" transform="rotate(0,212.5,203.5)"/><rect x="208" y="217" width="9" height="9" transform="rotate(0,212.5,221.5)"/><rect x="208" y="226" width="9" height="9" transform="rotate(0,212.5,230.5)"/><rect x="208" y="253" width="9" height="9" transform="rotate(0,212.5,257.5)"/><rect x="208" y="289" width="9" height="9" transform="rotate(0,212.5,293.5)"/><rect x="217" y="1" width="9" height="9" transform="rotate(0,221.5,5.5)"/><rect x="217" y="37" width="9" height="9" transform="rotate(0,221.5,41.5)"/><rect x="217" y="55" width="9" height="9" transform="rotate(0,221.5,59.5)"/><rect x="217" y="73" width="9" height="9" transform="rotate(0,221.5,77.5)"/><rect x="217" y="100" width="9" height="9" transform="rotate(0,221.5,104.5)"/><rect x="217" y="109" width="9" height="9" transform="rotate(0,221.5,113.5)"/><rect x="217" y="118" width="9" height="9" transform="rotate(0,221.5,122.5)"/><rect x="217" y="127" width="9" height="9" transform="rotate(0,221.5,131.5)"/><rect x="217" y="145" width="9" height="9" transform="rotate(0,221.5,149.5)"/><rect x="217" y="154" width="9" height="9" transform="rotate(0,221.5,158.5)"/><rect x="217" y="181" width="9" height="9" transform="rotate(0,221.5,185.5)"/><rect x="217" y="190" width="9" height="9" transform="rotate(0,221.5,194.5)"/><rect x="217" y="208" width="9" height="9" transform="rotate(0,221.5,212.5)"/><rect x="217" y="217" width="9" height="9" transform="rotate(0,221.5,221.5)"/><rect x="217" y="226" width="9" height="9" transform="rotate(0,221.5,230.5)"/><rect x="217" y="235" width="9" height="9" transform="rotate(0,221.5,239.5)"/><rect x="217" y="244" width="9" height="9" transform="rotate(0,221.5,248.5)"/><rect x="217" y="253" width="9" height="9" transform="rotate(0,221.5,257.5)"/><rect x="217" y="289" width="9" height="9" transform="rotate(0,221.5,293.5)"/><rect x="226" y="73" width="9" height="9" transform="rotate(0,230.5,77.5)"/><rect x="226" y="82" width="9" height="9" transform="rotate(0,230.5,86.5)"/><rect x="226" y="109" width="9" height="9" transform="rotate(0,230.5,113.5)"/><rect x="226" y="136" width="9" height="9" transform="rotate(0,230.5,140.5)"/><rect x="226" y="154" width="9" height="9" transform="rotate(0,230.5,158.5)"/><rect x="226" y="172" width="9" height="9" transform="rotate(0,230.5,176.5)"/><rect x="226" y="190" width="9" height="9" transform="rotate(0,230.5,194.5)"/><rect x="226" y="199" width="9" height="9" transform="rotate(0,230.5,203.5)"/><rect x="226" y="217" width="9" height="9" transform="rotate(0,230.5,221.5)"/><rect x="226" y="253" width="9" height="9" transform="rotate(0,230.5,257.5)"/><rect x="226" y="271" width="9" height="9" transform="rotate(0,230.5,275.5)"/><rect x="226" y="289" width="9" height="9" transform="rotate(0,230.5,293.5)"/><rect x="235" y="100" width="9" height="9" transform="rotate(0,239.5,104.5)"/><rect x="235" y="109" width="9" height="9" transform="rotate(0,239.5,113.5)"/><rect x="235" y="127" width="9" height="9" transform="rotate(0,239.5,131.5)"/><rect x="235" y="145" width="9" height="9" transform="rotate(0,239.5,149.5)"/><rect x="235" y="154" width="9" height="9" transform="rotate(0,239.5,158.5)"/><rect x="235" y="163" width="9" height="9" transform="rotate(0,239.5,167.5)"/><rect x="235" y="172" width="9" height="9" transform="rotate(0,239.5,176.5)"/><rect x="235" y="181" width="9" height="9" transform="rotate(0,239.5,185.5)"/><rect x="235" y="199" width="9" height="9" transform="rotate(0,239.5,203.5)"/><rect x="235" y="208" width="9" height="9" transform="rotate(0,239.5,212.5)"/><rect x="235" y="217" width="9" height="9" transform="rotate(0,239.5,221.5)"/><rect x="235" y="235" width="9" height="9" transform="rotate(0,239.5,239.5)"/><rect x="235" y="253" width="9" height="9" transform="rotate(0,239.5,257.5)"/><rect x="235" y="262" width="9" height="9" transform="rotate(0,239.5,266.5)"/><rect x="235" y="271" width="9" height="9" transform="rotate(0,239.5,275.5)"/><rect x="235" y="280" width="9" height="9" transform="rotate(0,239.5,284.5)"/><rect x="235" y="289" width="9" height="9" transform="rotate(0,239.5,293.5)"/><rect x="244" y="73" width="9" height="9" transform="rotate(0,248.5,77.5)"/><rect x="244" y="82" width="9" height="9" transform="rotate(0,248.5,86.5)"/><rect x="244" y="109" width="9" height="9" transform="rotate(0,248.5,113.5)"/><rect x="244" y="127" width="9" height="9" transform="rotate(0,248.5,131.5)"/><rect x="244" y="145" width="9" height="9" transform="rotate(0,248.5,149.5)"/><rect x="244" y="163" width="9" height="9" transform="rotate(0,248.5,167.5)"/><rect x="244" y="190" width="9" height="9" transform="rotate(0,248.5,194.5)"/><rect x="244" y="199" width="9" height="9" transform="rotate(0,248.5,203.5)"/><rect x="244" y="208" width="9" height="9" transform="rotate(0,248.5,212.5)"/><rect x="244" y="217" width="9" height="9" transform="rotate(0,248.5,221.5)"/><rect x="244" y="253" width="9" height="9" transform="rotate(0,248.5,257.5)"/><rect x="244" y="262" width="9" height="9" transform="rotate(0,248.5,266.5)"/><rect x="244" y="289" width="9" height="9" transform="rotate(0,248.5,293.5)"/><rect x="253" y="73" width="9" height="9" transform="rotate(0,257.5,77.5)"/><rect x="253" y="82" width="9" height="9" transform="rotate(0,257.5,86.5)"/><rect x="253" y="91" width="9" height="9" transform="rotate(0,257.5,95.5)"/><rect x="253" y="100" width="9" height="9" transform="rotate(0,257.5,104.5)"/><rect x="253" y="127" width="9" height="9" transform="rotate(0,257.5,131.5)"/><rect x="253" y="136" width="9" height="9" transform="rotate(0,257.5,140.5)"/><rect x="253" y="154" width="9" height="9" transform="rotate(0,257.5,158.5)"/><rect x="253" y="163" width="9" height="9" transform="rotate(0,257.5,167.5)"/><rect x="253" y="172" width="9" height="9" transform="rotate(0,257.5,176.5)"/><rect x="253" y="199" width="9" height="9" transform="rotate(0,257.5,203.5)"/><rect x="253" y="217" width="9" height="9" transform="rotate(0,257.5,221.5)"/><rect x="253" y="226" width="9" height="9" transform="rotate(0,257.5,230.5)"/><rect x="253" y="235" width="9" height="9" transform="rotate(0,257.5,239.5)"/><rect x="253" y="244" width="9" height="9" transform="rotate(0,257.5,248.5)"/><rect x="253" y="253" width="9" height="9" transform="rotate(0,257.5,257.5)"/><rect x="253" y="280" width="9" height="9" transform="rotate(0,257.5,284.5)"/><rect x="262" y="82" width="9" height="9" transform="rotate(0,266.5,86.5)"/><rect x="262" y="91" width="9" height="9" transform="rotate(0,266.5,95.5)"/><rect x="262" y="100" width="9" height="9" transform="rotate(0,266.5,104.5)"/><rect x="262" y="109" width="9" height="9" transform="rotate(0,266.5,113.5)"/><rect x="262" y="127" width="9" height="9" transform="rotate(0,266.5,131.5)"/><rect x="262" y="145" width="9" height="9" transform="rotate(0,266.5,149.5)"/><rect x="262" y="154" width="9" height="9" transform="rotate(0,266.5,158.5)"/><rect x="262" y="163" width="9" height="9" transform="rotate(0,266.5,167.5)"/><rect x="262" y="172" width="9" height="9" transform="rotate(0,266.5,176.5)"/><rect x="262" y="181" width="9" height="9" transform="rotate(0,266.5,185.5)"/><rect x="262" y="199" width="9" height="9" transform="rotate(0,266.5,203.5)"/><rect x="262" y="217" width="9" height="9" transform="rotate(0,266.5,221.5)"/><rect x="262" y="253" width="9" height="9" transform="rotate(0,266.5,257.5)"/><rect x="271" y="73" width="9" height="9" transform="rotate(0,275.5,77.5)"/><rect x="271" y="100" width="9" height="9" transform="rotate(0,275.5,104.5)"/><rect x="271" y="127" width="9" height="9" transform="rotate(0,275.5,131.5)"/><rect x="271" y="145" width="9" height="9" transform="rotate(0,275.5,149.5)"/><rect x="271" y="172" width="9" height="9" transform="rotate(0,275.5,176.5)"/><rect x="271" y="190" width="9" height="9" transform="rotate(0,275.5,194.5)"/><rect x="271" y="199" width="9" height="9" transform="rotate(0,275.5,203.5)"/><rect x="271" y="226" width="9" height="9" transform="rotate(0,275.5,230.5)"/><rect x="271" y="244" width="9" height="9" transform="rotate(0,275.5,248.5)"/><rect x="271" y="253" width="9" height="9" transform="rotate(0,275.5,257.5)"/><rect x="271" y="262" width="9" height="9" transform="rotate(0,275.5,266.5)"/><rect x="271" y="271" width="9" height="9" transform="rotate(0,275.5,275.5)"/><rect x="271" y="289" width="9" height="9" transform="rotate(0,275.5,293.5)"/><rect x="280" y="91" width="9" height="9" transform="rotate(0,284.5,95.5)"/><rect x="280" y="100" width="9" height="9" transform="rotate(0,284.5,104.5)"/><rect x="280" y="127" width="9" height="9" transform="rotate(0,284.5,131.5)"/><rect x="280" y="136" width="9" height="9" transform="rotate(0,284.5,140.5)"/><rect x="280" y="154" width="9" height="9" transform="rotate(0,284.5,158.5)"/><rect x="280" y="172" width="9" height="9" transform="rotate(0,284.5,176.5)"/><rect x="280" y="181" width="9" height="9" transform="rotate(0,284.5,185.5)"/><rect x="280" y="190" width="9" height="9" transform="rotate(0,284.5,194.5)"/><rect x="280" y="199" width="9" height="9" transform="rotate(0,284.5,203.5)"/><rect x="280" y="217" width="9" height="9" transform="rotate(0,284.5,221.5)"/><rect x="280" y="235" width="9" height="9" transform="rotate(0,284.5,239.5)"/><rect x="280" y="244" width="9" height="9" transform="rotate(0,284.5,248.5)"/><rect x="280" y="262" width="9" height="9" transform="rotate(0,284.5,266.5)"/><rect x="280" y="280" width="9" height="9" transform="rotate(0,284.5,284.5)"/><rect x="289" y="100" width="9" height="9" transform="rotate(0,293.5,104.5)"/><rect x="289" y="109" width="9" height="9" transform="rotate(0,293.5,113.5)"/><rect x="289" y="118" width="9" height="9" transform="rotate(0,293.5,122.5)"/><rect x="289" y="145" width="9" height="9" transform="rotate(0,293.5,149.5)"/><rect x="289" y="163" width="9" height="9" transform="rotate(0,293.5,167.5)"/><rect x="289" y="172" width="9" height="9" transform="rotate(0,293.5,176.5)"/><rect x="289" y="181" width="9" height="9" transform="rotate(0,293.5,185.5)"/><rect x="289" y="190" width="9" height="9" transform="rotate(0,293.5,194.5)"/><rect x="289" y="208" width="9" height="9" transform="rotate(0,293.5,212.5)"/><rect x="289" y="217" width="9" height="9" transform="rotate(0,293.5,221.5)"/><rect x="289" y="226" width="9" height="9" transform="rotate(0,293.5,230.5)"/><rect x="289" y="235" width="9" height="9" transform="rotate(0,293.5,239.5)"/><rect x="289" y="244" width="9" height="9" transform="rotate(0,293.5,248.5)"/><rect x="289" y="253" width="9" height="9" transform="rotate(0,293.5,257.5)"/><rect x="289" y="271" width="9" height="9" transform="rotate(0,293.5,275.5)"/><rect x="289" y="280" width="9" height="9" transform="rotate(0,293.5,284.5)"/><rect x="289" y="289" width="9" height="9" transform="rotate(0,293.5,293.5)"/></g><g class="green-dots"/><g class="corners-square-color-0-0"><path clip-rule="evenodd" d="M 1 10v 45a 9 9, 0, 0, 0, 9 9h 45a 9 9, 0, 0, 0, 9 -9v -45a 9 9, 0, 0, 0, -9 -9h -45a 9 9, 0, 0, 0, -9 9zM 14.5 10h 36a 4.5 4.5, 0, 0, 1, 4.5 4.5v 36a 4.5 4.5, 0, 0, 1, -4.5 4.5h -36a 4.5 4.5, 0, 0, 1, -4.5 -4.5v -36a 4.5 4.5, 0, 0, 1, 4.5 -4.5z" transform="rotate(0,32.5,32.5)"/></g><g class="corners-dot-color-0-0"><rect x="19" y="19" width="27" height="27" rx="6.75" ry="6.75" transform="rotate(0,32.5,32.5)"/></g><g class="corners-square-color-1-0"><path clip-rule="evenodd" d="M 235 10v 45a 9 9, 0, 0, 0, 9 9h 45a 9 9, 0, 0, 0, 9 -9v -45a 9 9, 0, 0, 0, -9 -9h -45a 9 9, 0, 0, 0, -9 9zM 248.5 10h 36a 4.5 4.5, 0, 0, 1, 4.5 4.5v 36a 4.5 4.5, 0, 0, 1, -4.5 4.5h -36a 4.5 4.5, 0, 0, 1, -4.5 -4.5v -36a 4.5 4.5, 0, 0, 1, 4.5 -4.5z" transform="rotate(90,266.5,32.5)"/></g><g class="corners-dot-color-1-0"><rect x="253" y="19" width="27" height="27" rx="6.75" ry="6.75" transform="rotate(90,266.5,32.5)"/></g><g class="corners-square-color-0-1"><path clip-rule="evenodd" d="M 1 244v 45a 9 9, 0, 0, 0, 9 9h 45a 9 9, 0, 0, 0, 9 -9v -45a 9 9, 0, 0, 0, -9 -9h -45a 9 9, 0, 0, 0, -9 9zM 14.5 244h 36a 4.5 4.5, 0, 0, 1, 4.5 4.5v 36a 4.5 4.5, 0, 0, 1, -4.5 4.5h -36a 4.5 4.5, 0, 0, 1, -4.5 -4.5v -36a 4.5 4.5, 0, 0, 1, 4.5 -4.5z" transform="rotate(-90,32.5,266.5)"/></g><g class="corners-dot-color-0-1"><rect x="19" y="253" width="27" height="27" rx="6.75" ry="6.75" transform="rotate(-90,32.5,266.5)"/></g><svg id="linkedInLogotype" xmlns="http://www.w3.org/2000/svg" viewBox="0 0 51 50" x="111" y="112" width="77px" height="75px"><path fill="#0A66C2" d="M.5 3.582C.5 1.604 2.144 0 4.172 0h42.656C48.856 0 50.5 1.604 50.5 3.582v42.836c0 1.979-1.644 3.582-3.672 3.582H4.172C2.144 50 .5 48.397.5 46.418V3.582Zm15.448 38.273V19.277H8.444v22.578h7.504Zm-3.752-25.66c2.617 0 4.246-1.734 4.246-3.9-.05-2.216-1.63-3.902-4.197-3.902S8 10.08 8 12.294c0 2.167 1.628 3.9 4.147 3.9h.049Zm15.34 25.66V29.247c0-.675.048-1.35.246-1.831.543-1.349 1.778-2.745 3.851-2.745 2.716 0 3.802 2.07 3.802 5.106v12.078h7.503V28.91c0-6.934-3.702-10.161-8.64-10.161-3.98 0-5.765 2.188-6.762 3.726v.078h-.05l.05-.078v-3.197H20.03c.099 2.119 0 22.578 0 22.578h7.505Z"/></svg></svg></g></svg></svg>